<svg width="80" height="81" viewBox="0 0 80 81" fill="none" xmlns="http://www.w3.org/2000/svg">
<rect x="0.769231" y="1.66669" width="78.4615" height="78.4615" rx="39.2308" fill="#49435F"/>
<rect x="0.769231" y="1.66669" width="78.4615" height="78.4615" rx="39.2308" stroke="#E5DBC7" stroke-width="1.53846"/>
<g clip-path="url(#clip0_868_10)">
<path d="M58.217 30.4735L57.3061 28.9048C57.0531 28.4494 56.4965 28.2976 56.0411 28.5506C55.9905 28.6012 55.8893 28.6518 55.8387 28.7024L53.764 30.7771C53.4604 31.0807 53.4098 31.5867 53.6628 31.941C54.4218 33.1048 55.029 34.3699 55.4845 35.6855C58.3688 44.2373 53.764 53.4976 45.2122 56.3819C43.5423 56.9386 41.7712 57.2422 40.0001 57.2422C37.3182 57.2422 34.6869 56.5843 32.3592 55.3193L35.9013 51.7771C41.923 54.0542 48.6531 51.0181 50.9302 44.9964C52.0435 42.0108 51.8917 38.6711 50.5254 35.7867C50.323 35.3313 49.7664 35.1289 49.2604 35.3313C49.1592 35.3819 49.058 35.4325 49.0074 35.5337L46.8821 37.6084C46.629 37.8614 46.5784 38.1651 46.629 38.4687L46.8314 39.2277C47.6917 42.9723 45.364 46.7675 41.6194 47.6277C39.8989 48.0325 38.0772 47.7795 36.5592 46.8687L35.6483 46.312C35.2941 46.1096 34.8387 46.1602 34.5351 46.4639L25.9327 55.0663C25.5784 55.4205 25.5784 56.0277 25.9327 56.3819C25.9833 56.4325 25.9833 56.4325 26.0339 56.4831L27.2989 57.4446C30.8917 60.3795 35.3953 61.8976 40.0001 61.8976C51.5881 61.8976 61.0001 52.4855 61.0001 40.847C61.0001 37.2036 60.0387 33.6614 58.217 30.4735Z" fill="url(#paint0_linear_868_10)"/>
<path d="M52.7508 24.2493C49.1075 21.4155 44.6038 19.8975 39.999 19.8975C28.4111 19.8975 18.999 29.3095 18.999 40.9481C18.999 44.5914 19.9605 48.1842 21.7316 51.3216L22.6424 52.8902C22.8954 53.3457 23.452 53.4975 23.9075 53.2445C23.9581 53.1939 24.0593 53.1432 24.1099 53.0926L26.1846 51.0179C26.4882 50.7143 26.5388 50.2083 26.2858 49.8541C25.5267 48.6902 24.9195 47.4252 24.4641 46.1095C21.5797 37.5577 26.1846 28.2975 34.7364 25.4131C36.4063 24.8565 38.1773 24.5529 39.9484 24.5529C42.6303 24.5529 45.2617 25.2107 47.5894 26.4758L44.0472 30.0179C38.0255 27.7408 31.2954 30.777 29.0183 36.7987C28.5123 38.1143 28.2593 39.5312 28.2593 40.9481C28.2593 41.1505 28.3099 42.0107 28.3099 42.1625C28.4617 43.4782 28.8159 44.7938 29.4231 46.0083C29.6255 46.4637 30.1822 46.6661 30.6882 46.4637C30.7894 46.4131 30.8906 46.3625 30.9412 46.2613L33.0665 44.136C33.3195 43.883 33.3701 43.5794 33.3195 43.2758L33.1677 42.5167C32.3075 38.7722 34.6352 34.977 38.3797 34.1167C40.1002 33.7119 41.9219 33.9649 43.44 34.8758L44.3508 35.4324C44.705 35.6348 45.1605 35.5842 45.4641 35.2806L54.0665 26.6782C54.4207 26.324 54.4207 25.7167 54.0665 25.3625C54.0159 25.3119 54.0159 25.3119 53.9653 25.2613L52.7508 24.2493Z" fill="url(#paint1_linear_868_10)"/>
</g>
<defs>
<linearGradient id="paint0_linear_868_10" x1="32.5932" y1="63.2334" x2="62.1562" y2="33.6704" gradientUnits="userSpaceOnUse">
<stop stop-color="#A98FE1"/>
<stop offset="1" stop-color="#76BCEA"/>
</linearGradient>
<linearGradient id="paint1_linear_868_10" x1="17.8341" y1="48.126" x2="47.4012" y2="18.5607" gradientUnits="userSpaceOnUse">
<stop stop-color="#66C1DE"/>
<stop offset="1" stop-color="#5BC891"/>
</linearGradient>
<clipPath id="clip0_868_10">
<rect width="42" height="42" fill="white" transform="translate(19 19.8975)"/>
</clipPath>
</defs>
</svg>
