<svg width="80" height="81" viewBox="0 0 80 81" fill="none" xmlns="http://www.w3.org/2000/svg">
<rect x="0.769231" y="0.897649" width="78.4615" height="78.4615" rx="39.2308" fill="#7F9F69"/>
<rect x="0.769231" y="0.897649" width="78.4615" height="78.4615" rx="39.2308" stroke="#E5DBC7" stroke-width="1.53846"/>
<path d="M33.0196 32.9668V30.0029C33.3319 29.9724 33.613 29.9724 33.9253 29.9724C42.2639 29.7279 47.7293 37.0002 47.7293 37.0002C47.7293 37.0002 41.8267 44.9752 35.4868 44.9752C34.6436 44.9752 33.8316 44.8529 33.0196 44.5779V35.564C36.2676 35.9613 36.9235 37.3363 38.8598 40.514L43.2009 36.939C43.2009 36.939 40.0153 32.8752 34.7061 32.8752C34.1439 32.8752 33.5818 32.9057 33.0196 32.9668ZM33.0196 23.1279V27.5585L33.9253 27.4974C45.5119 27.1002 53.0698 36.7863 53.0698 36.7863C53.0698 36.7863 44.3876 47.1446 35.3619 47.1446C34.5811 47.1446 33.8004 47.0835 33.0196 46.9307V49.6807C33.6442 49.7418 34.3001 49.8029 34.9559 49.8029C43.357 49.8029 49.447 45.5863 55.3497 40.6363C56.3178 41.4002 60.3154 43.264 61.1586 44.0585C55.5683 48.6418 42.5138 52.339 35.1121 52.339C34.3938 52.339 33.7379 52.3085 33.0508 52.2168V56.1279H65V23.1279C65 23.1279 33.0196 23.1279 33.0196 23.1279ZM33.0196 44.6085V46.9613C25.2431 45.5863 23.0882 37.6724 23.0882 37.6724C23.0882 37.6724 26.8359 33.639 33.0196 32.9668V35.5335H32.9884C29.7404 35.1363 27.1794 38.1307 27.1794 38.1307C27.1794 38.1307 28.6473 43.1418 33.0196 44.6085ZM19.2156 37.3363C19.2156 37.3363 23.8065 30.6752 33.0196 30.0029V27.589C22.8071 28.3835 14 36.8168 14 36.8168C14 36.8168 18.9969 50.964 33.0196 52.2474V49.6807C22.7134 48.4279 19.2156 37.3363 19.2156 37.3363Z" fill="white" fill-opacity="0.9"/>
</svg>
