<svg width="80" height="81" viewBox="0 0 80 81" fill="none" xmlns="http://www.w3.org/2000/svg">
<rect x="0.769231" y="1.487" width="78.4615" height="78.4615" rx="39.2308" fill="#A1484F"/>
<rect x="0.769231" y="1.487" width="78.4615" height="78.4615" rx="39.2308" stroke="#E5DBC7" stroke-width="1.53846"/>
<path d="M20.9867 50.0573C19.1756 50.0573 16.7137 49.6612 14.7612 48.9537V44.2563H17.5344C17.9305 45.841 19.2605 46.6899 21.015 46.6899C22.5997 46.6899 24.2127 45.7844 24.2127 43.0961C24.2127 40.7473 22.8261 39.7852 21.2697 39.7852C20.2227 39.7852 19.119 40.2663 18.2701 41.1152H14.8744V29.3433H28.231V33.1069H18.7512V37.6063C19.8548 36.8988 21.2697 36.5027 22.6846 36.5027C25.8256 36.5027 29.1082 38.3986 29.1082 42.8697C29.1082 47.935 25.5993 50.0573 20.9867 50.0573ZM40.0754 32.541C37.5852 32.541 36.3401 34.8048 36.3401 39.5305C36.3401 44.2563 37.5852 46.5484 40.0754 46.5484C42.5656 46.5484 43.8107 44.2846 43.8107 39.5588C43.8107 34.8331 42.5656 32.541 40.0754 32.541ZM40.0754 50.0573C33.5386 50.0573 31.303 45.4731 31.303 39.5305C31.303 33.588 33.5386 29.0037 40.0754 29.0037C46.6122 29.0037 48.8194 33.6163 48.8194 39.5588C48.8194 45.5014 46.6122 50.0573 40.0754 50.0573ZM59.9723 32.541C57.4821 32.541 56.237 34.8048 56.237 39.5305C56.237 44.2563 57.4821 46.5484 59.9723 46.5484C62.4625 46.5484 63.7076 44.2846 63.7076 39.5588C63.7076 34.8331 62.4625 32.541 59.9723 32.541ZM59.9723 50.0573C53.4355 50.0573 51.2 45.4731 51.2 39.5305C51.2 33.588 53.4355 29.0037 59.9723 29.0037C66.5091 29.0037 68.7164 33.6163 68.7164 39.5588C68.7164 45.5014 66.5091 50.0573 59.9723 50.0573Z" fill="white" fill-opacity="0.9"/>
</svg>
