<svg width="80" height="81" viewBox="0 0 80 81" fill="none" xmlns="http://www.w3.org/2000/svg">
<rect x="0.769231" y="1.53827" width="78.4615" height="78.4615" rx="39.2308" fill="#D27A47"/>
<rect x="0.769231" y="1.53827" width="78.4615" height="78.4615" rx="39.2308" stroke="#E5DBC7" stroke-width="1.53846"/>
<path d="M54.3243 42.9509C52.9768 41.3219 51.0472 40.4839 48.7412 40.0478C50.0584 39.2765 51.0262 38.3338 51.656 37.2304C53.4211 34.2421 52.8083 28.6481 50.1139 26.5607C49.1914 25.7466 48.0214 25.1574 46.6255 24.7932V19.769H41.47V24.3219H38.1945V19.769H33.04V24.3219H29V57.9913H33.04V62.769H38.1945V57.9913H41.47V62.769H46.6255V57.8092C47.4019 57.702 48.1449 57.5627 48.8426 57.3592C55.3632 55.9068 58.011 48.0634 54.3243 42.9509ZM45.016 33.9631C45.016 36.4377 43.3835 37.6696 40.1085 37.6696H38.1837V30.2459H40.1085C43.3835 30.2459 45.016 31.4778 45.016 33.9524V33.9631ZM45.1735 50.3532C44.0391 51.1727 40.3445 51.2628 38.1837 51.1996V44.0543C40.35 43.9924 44.0339 44.0801 45.1735 44.9007C47.1765 45.8968 47.1884 49.357 45.1735 50.3532Z" fill="#262626"/>
</svg>
