<svg width="80" height="81" viewBox="0 0 80 81" fill="none" xmlns="http://www.w3.org/2000/svg">
<rect x="0.769231" y="1.05146" width="78.4615" height="78.4615" rx="39.2308" fill="#B55B5C"/>
<rect x="0.769231" y="1.05146" width="78.4615" height="78.4615" rx="39.2308" stroke="#E5DBC7" stroke-width="1.53846"/>
<path d="M39.9497 64.6632L46.0882 30.7944C51.8995 30.8004 53.7385 31.4306 53.9937 33.9948C53.9937 33.9948 57.8981 32.5555 59.8611 29.654C52.1966 26.1312 44.477 25.9704 44.477 25.9704L39.9668 31.3824L39.984 31.3824L35.5021 25.9612C35.5021 25.9612 27.7823 26.106 20.1105 29.613C22.0675 32.5356 25.9689 33.9659 25.9689 33.9659C26.2294 31.4022 28.0697 30.7758 33.8466 30.7648L39.9497 64.6632Z" fill="white" fill-opacity="0.9"/>
<path d="M39.9916 24.4045C46.1984 24.36 53.2981 25.3691 60.5676 28.5009C61.5494 26.77 61.7909 26.0061 61.7909 26.0061C53.8509 22.8906 46.4073 21.8301 39.9943 21.7896C33.5984 21.8169 26.1527 22.862 18.189 25.9611C18.189 25.9611 18.5491 26.8954 19.4072 28.4585C26.6831 25.3247 33.7849 24.3472 39.9916 24.4045Z" fill="white" fill-opacity="0.9"/>
</svg>
